<svg width="92" height="65" viewBox="0 0 92 65" fill="none" xmlns="http://www.w3.org/2000/svg">
<mask id="mask0_2055_6236" style="mask-type:luminance" maskUnits="userSpaceOnUse" x="17" y="0" width="58" height="53">
<path d="M17.5388 0H74.0157V52.9472H17.5388V0Z" fill="white"/>
</mask>
<g mask="url(#mask0_2055_6236)">
<path d="M45.7154 0.7854C29.2709 0.7854 19.0653 20.6318 17.7196 39.3177L26.4206 46.4391H26.425C39.0044 54.743 51.8573 54.9283 65.0014 46.4391H65.0058L73.7068 39.3177C72.3611 20.6318 62.1555 0.7854 45.7154 0.7854Z" fill="#957557"/>
</g>
<path d="M84.1198 38.7177C79.3104 36.3792 73.7068 39.3177 73.7068 39.3177L65.0058 46.4391H65.0014C65.0014 46.4391 62.1599 45.3449 59.8479 45.8214C57.5403 46.3024 56.2387 48.4423 53.8384 48.7423C51.5881 49.0247 49.5276 47.701 45.7154 47.701C41.8988 47.701 39.8383 49.0247 37.588 48.7423C35.1922 48.4423 33.8861 46.3024 31.5785 45.8214C29.2709 45.3449 26.425 46.4391 26.425 46.4391H26.4206L17.7196 39.3177C17.7196 39.3177 12.116 36.3792 7.30665 38.7177C2.49287 41.0606 3.03117 47.7672 3.03117 47.7672L3.39297 49.9513V49.9557C3.39297 49.9557 3.90921 52.7531 4.95491 54.7518L5.76236 55.9432C6.60951 56.8477 8.47149 58.2508 10.735 59.6097L11.8645 60.2584C14.9752 61.9924 18.5932 63.4793 21.3376 63.4793C26.8353 63.4793 29.6415 61.1629 33.3875 61.1629C37.138 61.1629 41.3296 63.5631 45.7154 63.5631C50.0968 63.5631 54.2928 61.1629 58.0389 61.1629C61.7849 61.1629 64.5911 63.4793 70.0887 63.4793C72.8376 63.4793 76.4557 61.9924 79.5619 60.2584L80.6914 59.6097C82.9549 58.2508 84.8213 56.8477 85.664 55.9432L86.4715 54.7518C87.5216 52.7531 88.0334 49.9557 88.0334 49.9557V49.9513L88.3952 47.7672C88.3952 47.7672 88.9335 41.0606 84.1198 38.7177Z" fill="#604533"/>
<path d="M88.3952 47.7672C89.2467 48.8658 89.988 50.1365 90.6322 51.5661C89.7939 50.9528 88.9291 50.4101 88.0334 49.9512C85.3507 48.5834 82.3901 47.9348 79.0809 48.1819C79.0544 47.5245 79.3324 46.8979 79.8354 46.4832L81.6312 44.9918C82.0901 44.6124 82.346 44.0917 82.3989 43.5579H82.4122C84.8389 44.2815 86.8068 45.7199 88.3952 47.7672Z" fill="#E7F2F1"/>
<path d="M85.6641 55.9431C82.9197 54.3105 80.0737 53.2251 77.0469 53.1236C78.3662 52.5015 79.2001 51.1337 79.1383 49.6512L79.081 48.1819C81.9534 49.6159 84.6184 51.7205 86.4715 54.7517C86.9525 55.5371 87.3805 56.3799 87.7423 57.2932C87.054 56.8123 86.3612 56.3578 85.6641 55.9431Z" fill="#E7F2F1"/>
<path d="M72.4758 57.2931C71.8625 57.6064 71.0859 57.5534 70.5079 57.0504C66.9119 53.9221 64.8867 49.9114 65.0058 46.4389C65.0499 45.0888 65.4206 43.8225 66.153 42.715C67.5693 40.5662 70.4814 39.3661 73.7068 39.3175C76.2659 39.2778 79.028 39.9705 81.4018 41.4795C82.143 41.9472 82.4828 42.7679 82.3989 43.5577C82.346 44.0916 82.0901 44.6122 81.6312 44.9917L79.8354 46.483C79.3324 46.8978 79.0544 47.5243 79.0809 48.1818L79.1383 49.6511C79.2001 51.1336 78.3661 52.5014 77.0469 53.1235C76.9763 53.1588 76.9013 53.1897 76.8263 53.2206L74.8187 54.0104C74.3421 54.2001 73.9671 54.5884 73.7906 55.0737L73.3538 56.3003C73.1905 56.7636 72.864 57.1034 72.4758 57.2931Z" fill="#FEC4B9"/>
<path d="M79.562 60.2584C77.3294 58.873 74.9777 57.8449 72.476 57.2934C72.8642 57.1036 73.1907 56.7639 73.354 56.3006L73.7908 55.074C73.9673 54.5887 74.3423 54.2004 74.8189 54.0106L76.8264 53.2208C76.9015 53.19 76.9765 53.1591 77.0471 53.1238C78.6266 54.9107 79.8312 57.0816 80.6916 59.6098C80.8857 60.1746 81.0622 60.7614 81.2166 61.3615C80.6739 60.9732 80.1224 60.6026 79.562 60.2584Z" fill="#E7F2F1"/>
<path d="M64.8469 26.0899C64.8469 26.3987 64.7896 26.6943 64.6705 26.9767C64.5557 27.2591 64.3881 27.5106 64.1763 27.7268C63.9601 27.943 63.713 28.1107 63.4306 28.2298C63.1482 28.3445 62.857 28.4019 62.5526 28.4019C62.2481 28.4019 61.9569 28.3445 61.6745 28.2298C61.3966 28.1107 61.1495 27.943 60.9333 27.7268C60.7171 27.5106 60.5538 27.2591 60.4347 26.9767C60.32 26.6943 60.2626 26.3987 60.2626 26.0899C60.2626 25.7854 60.32 25.4898 60.4347 25.203C60.5538 24.9206 60.7171 24.6735 60.9333 24.4529C61.1495 24.2367 61.3966 24.069 61.6745 23.9543C61.9569 23.8352 62.2481 23.7778 62.5526 23.7778C62.857 23.7778 63.1482 23.8352 63.4306 23.9543C63.713 24.069 63.9601 24.2367 64.1763 24.4529C64.3881 24.6735 64.5557 24.9206 64.6705 25.203C64.7896 25.4898 64.8469 25.7854 64.8469 26.0899Z" fill="#543927"/>
<path d="M45.7154 27.14C49.0423 27.14 50.2689 22.613 50.2998 22.5027C54.209 24.272 56.9314 28.2298 56.9314 32.8318C56.9314 39.0796 51.9058 44.1493 45.7154 44.1493C39.5206 44.1493 34.4995 39.0796 34.4995 32.8318C34.4995 28.2298 37.2218 24.272 41.1267 22.5027C41.1576 22.613 42.3886 27.14 45.7154 27.14Z" fill="#FEC4B9"/>
<path d="M31.1684 26.0899C31.1684 26.3987 31.1066 26.6943 30.9919 26.9767C30.8772 27.2591 30.7095 27.5106 30.4933 27.7268C30.2815 27.943 30.0344 28.1107 29.752 28.2298C29.4697 28.3445 29.1784 28.4019 28.874 28.4019C28.5696 28.4019 28.2783 28.3445 27.996 28.2298C27.7136 28.1107 27.4665 27.943 27.2547 27.7268C27.0385 27.5106 26.8708 27.2591 26.7561 26.9767C26.6414 26.6943 26.5796 26.3987 26.5796 26.0899C26.5796 25.7854 26.6414 25.4898 26.7561 25.203C26.8708 24.9206 27.0385 24.6735 27.2547 24.4529C27.4665 24.2367 27.7136 24.069 27.996 23.9543C28.2783 23.8352 28.5696 23.7778 28.874 23.7778C29.1784 23.7778 29.4697 23.8352 29.752 23.9543C30.0344 24.069 30.2815 24.2367 30.4933 24.4529C30.7095 24.6735 30.8772 24.9206 30.9919 25.203C31.1066 25.4898 31.1684 25.7854 31.1684 26.0899Z" fill="#543927"/>
<path d="M18.9506 57.2931C18.5624 57.1034 18.2403 56.7636 18.0726 56.3003L17.6358 55.0737C17.4593 54.5884 17.0887 54.2001 16.6077 54.0104L14.6001 53.2206C14.5251 53.1897 14.4545 53.1588 14.3839 53.1235C13.0603 52.5014 12.2308 51.1336 12.2881 49.6511L12.3455 48.1818C12.3764 47.5243 12.094 46.8978 11.591 46.483L9.79518 44.9917C9.33631 44.6122 9.08481 44.0916 9.02745 43.5577C8.94803 42.7679 9.28777 41.9472 10.0246 41.4795C12.4028 39.9705 15.1605 39.2778 17.7196 39.3175C20.945 39.3661 23.8571 40.5662 25.2778 42.715C26.0058 43.8225 26.3765 45.0888 26.4206 46.4389C26.5397 49.9114 24.5145 53.9221 20.9229 57.0504C20.3405 57.5534 19.5639 57.6064 18.9506 57.2931Z" fill="#FEC4B9"/>
<path d="M11.8647 60.2584C11.3044 60.6026 10.7572 60.9732 10.2101 61.3615C10.369 60.7614 10.5454 60.1746 10.7352 59.6098C11.5956 57.0816 12.8001 54.9107 14.3841 53.1238C14.4547 53.1591 14.5253 53.19 14.6003 53.2208L16.6079 54.0106C17.0888 54.2004 17.4595 54.5887 17.636 55.074L18.0728 56.3006C18.2404 56.7639 18.5625 57.1036 18.9508 57.2934C16.4491 57.8449 14.1017 58.873 11.8647 60.2584Z" fill="#E7F2F1"/>
<path d="M11.5909 46.4832C12.0939 46.8979 12.3763 47.5245 12.3454 48.1819C9.03622 47.9348 6.07559 48.5834 3.39293 49.9512C2.49725 50.4101 1.63244 50.9528 0.798523 51.5661C1.4383 50.1365 2.17956 48.8658 3.03113 47.7672C4.61954 45.7199 6.58741 44.2815 9.01416 43.5579H9.02739C9.08475 44.0917 9.33625 44.6124 9.79513 44.9918L11.5909 46.4832Z" fill="#E7F2F1"/>
<path d="M5.76256 55.9431C5.06543 56.3578 4.3727 56.8123 3.68439 57.2932C4.05061 56.3799 4.47418 55.5371 4.95512 54.7517C6.81268 51.7205 9.47328 49.6159 12.3457 48.1819L12.2883 49.6512C12.2309 51.1337 13.0604 52.5015 14.3841 53.1236C11.3529 53.2251 8.50699 54.3105 5.76256 55.9431Z" fill="#E7F2F1"/>
<path d="M50.2997 22.5025C50.2689 22.6128 49.0422 27.1398 45.7154 27.1398C42.3886 27.1398 41.1575 22.6128 41.1266 22.5025C42.5297 21.8671 44.0785 21.5142 45.7154 21.5142C47.3479 21.5142 48.9011 21.8671 50.2997 22.5025Z" fill="#655F68"/>
<path d="M26.425 46.439C26.425 46.439 28.1811 45.7639 30.0519 45.7065C31.4505 53.203 24.3997 60.4435 20.7905 60.2582C17.1813 60.0729 15.4164 62.001 15.4164 62.001C14.2118 61.4936 13.0029 60.8936 11.8645 60.2582C14.1015 58.8727 16.4488 57.8447 18.9506 57.2931C19.5639 57.6064 20.3405 57.5535 20.9229 57.0505C24.5145 53.9222 26.5397 49.9114 26.4206 46.439H26.425Z" fill="#543927"/>
<path d="M65.0015 46.439H65.006C64.8868 49.9114 66.9121 53.9222 70.508 57.0505C71.0861 57.5535 71.8626 57.6064 72.4759 57.2931C74.9777 57.8447 77.3294 58.8727 79.562 60.2582C78.4236 60.8936 77.2191 61.498 76.0101 62.001C74.9115 60.1788 71.8273 60.2582 71.8273 60.2582C62.0321 58.5153 61.3747 45.7065 61.3747 45.7065C63.2455 45.7639 65.0015 46.439 65.0015 46.439Z" fill="#543927"/>
<path d="M54.4872 2.83716C65.7517 8.37014 72.6216 24.2234 73.707 39.3177C70.4816 39.3663 67.5695 40.5664 66.1532 42.7152C68.9947 19.8023 54.6901 3.07542 54.4872 2.83716Z" fill="#896B52"/>
<path d="M55.2945 26.9458C57.3021 28.9887 58.5375 31.7993 58.5375 34.9055C58.5375 41.1533 53.5164 46.2186 47.3215 46.2186C43.2667 46.2186 39.7104 44.0477 37.7425 40.7915C39.7766 42.8652 42.596 44.1536 45.7155 44.1536C51.9103 44.1536 56.9403 39.0839 56.9315 32.8362C56.9315 30.6786 56.3358 28.6622 55.2945 26.9458Z" fill="#896B52"/>
<mask id="mask1_2055_6236" style="mask-type:luminance" maskUnits="userSpaceOnUse" x="0" y="0" width="92" height="65">
<path d="M0 0H91.4265V64.3396H0V0Z" fill="white"/>
</mask>
<g mask="url(#mask1_2055_6236)">
<path d="M45.7156 44.8771C52.2987 44.8771 57.6551 39.4721 57.6551 32.8317C57.6551 26.1868 52.2987 20.7818 45.7156 20.7818C39.128 20.7818 33.7716 26.1868 33.7716 32.8317C33.7716 39.4721 39.128 44.8771 45.7156 44.8771ZM49.3954 22.9217C48.963 24.0601 47.8202 26.4118 45.7156 26.4118C43.6065 26.4118 42.4637 24.0601 42.0313 22.9217C43.1785 22.4849 44.4184 22.2466 45.7156 22.2466C47.0083 22.2466 48.2482 22.4849 49.3954 22.9217ZM40.712 23.5306C41.2283 24.8764 42.5167 27.3913 44.9875 27.8105V31.9625L42.2431 34.8128C41.9607 35.104 41.9695 35.5673 42.2563 35.8497C42.5431 36.1276 43.002 36.1232 43.28 35.832L45.7156 33.3082L48.1467 35.832C48.2879 35.982 48.4776 36.0526 48.6674 36.0526C48.8483 36.0526 49.0336 35.9864 49.1704 35.8497C49.4572 35.5673 49.466 35.104 49.188 34.8128L46.4392 31.9625V27.8105C48.91 27.3913 50.1984 24.8764 50.7191 23.5306C53.9841 25.3264 56.2079 28.8209 56.2079 32.8317C56.2079 38.6691 51.5 43.4167 45.7156 43.4167C39.9267 43.4167 35.2232 38.6691 35.2232 32.8317C35.2232 28.8209 37.4426 25.3264 40.712 23.5306ZM62.5527 29.1342C64.2162 29.1342 65.5707 27.7708 65.5707 26.0897C65.5707 24.4131 64.2162 23.0453 62.5527 23.0453C60.8893 23.0453 59.5348 24.4131 59.5348 26.0897C59.5348 27.7708 60.8893 29.1342 62.5527 29.1342ZM62.5527 24.5101C63.4176 24.5101 64.1235 25.2161 64.1235 26.0897C64.1235 26.9634 63.4176 27.6737 62.5527 27.6737C61.6879 27.6737 60.9864 26.9634 60.9864 26.0897C60.9864 25.2161 61.6879 24.5101 62.5527 24.5101ZM28.8739 29.1342C30.5374 29.1342 31.8919 27.7708 31.8919 26.0897C31.8919 24.4131 30.5374 23.0453 28.8739 23.0453C27.2105 23.0453 25.856 24.4131 25.856 26.0897C25.856 27.7708 27.2105 29.1342 28.8739 29.1342ZM28.8739 24.5101C29.7387 24.5101 30.4447 25.2161 30.4447 26.0897C30.4447 26.9634 29.7387 27.6737 28.8739 27.6737C28.0091 27.6737 27.3076 26.9634 27.3076 26.0897C27.3076 25.2161 28.0091 24.5101 28.8739 24.5101ZM0.339839 52.1309C0.472207 52.2412 0.63546 52.2942 0.798715 52.2942C0.948731 52.2942 1.09434 52.25 1.22229 52.1574C1.77382 51.7515 2.32977 51.3896 2.89454 51.0631C3.11957 51.9985 3.52549 53.4546 4.12997 54.7209C3.7064 55.4533 3.33135 56.2167 3.01367 57.0197C2.89454 57.3197 2.9872 57.6639 3.23428 57.8624C3.36665 57.9683 3.52549 58.0213 3.68875 58.0213C3.82994 58.0213 3.97555 57.9772 4.09909 57.8933C4.62856 57.5227 5.14921 57.1785 5.65662 56.8653C6.60967 57.7477 8.14072 58.864 9.87033 59.9318C9.74237 60.3377 9.62324 60.7525 9.50852 61.1716C9.43351 61.4717 9.54823 61.7849 9.79532 61.9614C9.92327 62.0497 10.0645 62.0938 10.2101 62.0938C10.3557 62.0938 10.5057 62.0453 10.6292 61.957C11.0484 61.657 11.472 61.3746 11.8911 61.1055C14.1855 62.3541 18.1433 64.2117 21.3378 64.2117C24.4573 64.2117 26.7472 63.4925 28.7636 62.8571C30.3962 62.3409 31.8037 61.8952 33.3877 61.8952C35.0864 61.8952 36.9263 62.4291 38.8721 62.9939C41.065 63.6337 43.3329 64.2955 45.7156 64.2955C48.0938 64.2955 50.3617 63.6337 52.559 62.9939C54.5048 62.4291 56.3403 61.8952 58.039 61.8952C59.623 61.8952 61.0349 62.3409 62.6675 62.8571C64.6839 63.4925 66.9694 64.2117 70.0889 64.2117C73.2834 64.2117 77.2412 62.3541 79.54 61.1055C79.9591 61.3746 80.3783 61.657 80.7975 61.957C80.9254 62.0453 81.071 62.0938 81.2166 62.0938C81.3622 62.0938 81.5078 62.0497 81.6314 61.9614C81.8829 61.7849 81.9976 61.4717 81.9182 61.1716C81.8079 60.7525 81.6887 60.3377 81.5608 59.9318C83.286 58.864 84.817 57.7477 85.7701 56.8653C86.2819 57.1785 86.7981 57.5227 87.3276 57.8933C87.4556 57.9772 87.5968 58.0213 87.7424 58.0213C87.9012 58.0213 88.0601 57.9683 88.1924 57.8624C88.4439 57.6595 88.5322 57.3197 88.413 57.0197C88.0953 56.2167 87.7247 55.4533 87.3011 54.7209C87.9012 53.4546 88.3071 51.9985 88.5322 51.0631C89.0969 51.3896 89.6529 51.7515 90.2044 52.1574C90.3324 52.25 90.4824 52.2942 90.6324 52.2942C90.7912 52.2942 90.9545 52.2412 91.0869 52.1309C91.3428 51.9235 91.4266 51.5661 91.2898 51.2617C90.6589 49.863 89.9397 48.6232 89.1322 47.5466C89.1852 46.1788 89.1146 40.3369 84.4376 38.0602C80.5283 36.1585 76.2308 37.469 74.3467 38.2323C73.504 28.7989 70.4816 19.5243 65.9767 12.6411C60.5893 4.40787 53.5826 0.057373 45.7156 0.057373C37.8441 0.057373 30.8374 4.40787 25.45 12.6411C20.9495 19.5243 17.9227 28.7989 17.0844 38.2323C15.1959 37.469 10.8984 36.1585 6.98912 38.0602C2.31653 40.3369 2.24594 46.1788 2.29447 47.5466C1.48703 48.6232 0.767829 49.863 0.136875 51.2661C9.4749e-05 51.5661 0.0839275 51.9235 0.339839 52.1309ZM8.53341 44.4889C8.7099 44.8992 8.98346 45.261 9.33644 45.5566L11.1322 47.0436C11.2558 47.1495 11.3573 47.273 11.4367 47.4054C8.35251 47.3348 5.43159 48.0319 2.71364 49.4924C4.25793 47.0127 6.18167 45.3669 8.53341 44.4889ZM18.6463 40.0987C21.3731 40.3413 23.566 41.4444 24.6735 43.1211C27.034 46.695 25.2559 52.3206 20.4509 56.4946C20.1774 56.7329 19.8244 56.8123 19.4846 56.7241C19.1405 56.6314 18.8758 56.3887 18.7566 56.0534L18.3154 54.8268C18.0727 54.1429 17.5433 53.5958 16.8726 53.331L14.865 52.5412C13.7046 52.0824 12.9633 50.9352 13.0119 49.6821L13.0736 48.2084C13.1089 47.3304 12.7251 46.4744 12.0544 45.914L10.2586 44.4271C9.90121 44.1315 9.7159 43.6991 9.74237 43.2358C9.77326 42.7637 10.0159 42.3533 10.413 42.0974C12.8089 40.5708 15.8136 39.8428 18.6463 40.0987ZM5.50219 55.2504C6.92294 52.8854 8.95258 50.9352 11.5735 49.4262L11.5646 49.6203C11.5205 50.7146 11.8823 51.7559 12.5353 52.5677C10.2674 52.9207 7.96423 53.7943 5.50219 55.2504ZM4.22263 50.3616C5.94782 49.5497 7.74362 49.0688 9.63207 48.9188C7.8098 50.141 6.29198 51.5926 5.07861 53.2604C4.65503 52.1574 4.36824 51.0146 4.22263 50.3616ZM6.9803 56.0887C8.9967 54.9856 10.8896 54.3062 12.7471 54.0149C11.8029 55.343 11.0043 56.8476 10.3601 58.5243C9.02317 57.6815 7.81421 56.8079 6.9803 56.0887ZM14.5959 54.0017L16.3431 54.69C16.6299 54.8047 16.8505 55.0342 16.9564 55.3254L17.3932 56.5476C17.4374 56.6711 17.4903 56.7858 17.5521 56.8962C15.5136 57.4786 13.5149 58.3787 11.4985 59.6273C12.2662 57.4433 13.3075 55.5592 14.5959 54.0017ZM70.0889 62.7512C67.19 62.7512 65.1119 62.0938 63.0999 61.4584C61.4232 60.9334 59.8436 60.4348 58.039 60.4348C56.1373 60.4348 54.2047 60.9951 52.1575 61.5908C50.0572 62.2041 47.8864 62.8351 45.7156 62.8351C43.5403 62.8351 41.3695 62.2041 39.2737 61.5908C37.2264 60.9951 35.2894 60.4348 33.3877 60.4348C31.5831 60.4348 30.0035 60.9334 28.3312 61.4584C26.3192 62.0938 24.2367 62.7512 21.3378 62.7512C19.317 62.7512 16.5152 61.86 13.3516 60.2318C15.1915 59.2082 17.0226 58.4934 18.8846 58.061C18.9596 58.0875 19.039 58.1139 19.114 58.136C19.3258 58.1934 19.5376 58.2198 19.7538 58.2198C20.3495 58.2198 20.9319 58.0036 21.3952 57.6021C25.0176 54.4518 27.0561 50.4984 27.1443 46.9686C27.9915 46.7038 29.8755 46.2185 31.4331 46.5406C32.3861 46.7347 33.1759 47.2818 34.0098 47.8598C35.0202 48.5614 36.0659 49.2894 37.4999 49.4659C37.7514 49.4968 37.9941 49.5144 38.2412 49.5144C39.1898 49.5144 40.1076 49.2982 41.1356 49.06C42.4064 48.7688 43.8448 48.4334 45.7156 48.4334C47.5864 48.4334 49.0247 48.7688 50.2911 49.06C51.5839 49.36 52.7046 49.6203 53.9312 49.4659C55.3608 49.2894 56.4065 48.5614 57.4213 47.8598C58.2508 47.2818 59.0406 46.7347 59.9936 46.5406C61.5512 46.2185 63.4352 46.7038 64.2868 46.9686C64.375 50.4984 66.4091 54.4518 70.0315 57.6021C70.4948 58.0036 71.0817 58.2198 71.6773 58.2198C71.8891 58.2198 72.1009 58.1934 72.3127 58.136C72.3921 58.1139 72.4671 58.0875 72.5421 58.061C74.4041 58.4934 76.2352 59.2082 78.0751 60.2318C74.9159 61.86 72.1097 62.7512 70.0889 62.7512ZM73.9055 40.0457C76.394 40.0457 78.9311 40.7737 81.0181 42.0974C81.4108 42.3533 81.6579 42.7637 81.6843 43.2358C81.7152 43.6991 81.5255 44.1315 81.1725 44.4271L79.3767 45.914C78.7016 46.4744 78.3222 47.3304 78.3575 48.2084L78.4148 49.6821C78.4678 50.9352 77.7221 52.0824 76.5661 52.5368L74.5585 53.331C73.8834 53.5958 73.3584 54.1429 73.1113 54.8268L72.6701 56.0534C72.5509 56.3887 72.2862 56.6314 71.9465 56.7241C71.6023 56.8123 71.2493 56.7329 70.9802 56.4946C66.1752 52.3206 64.3971 46.695 66.7532 43.1211C67.8607 41.4444 70.058 40.3413 72.7804 40.0987C73.1554 40.0634 73.5305 40.0457 73.9055 40.0457ZM82.8977 44.4889C85.2494 45.3669 87.1688 47.0127 88.7175 49.4924C85.9995 48.0319 83.0742 47.3348 79.99 47.4054C80.0694 47.2686 80.1709 47.1495 80.2945 47.0436L82.0903 45.5566C82.4476 45.261 82.7168 44.8992 82.8977 44.4889ZM85.9289 55.2504C83.4625 53.7943 81.1637 52.9207 78.8914 52.5677C79.5444 51.7559 79.9062 50.7146 79.8621 49.6203L79.8577 49.4262C82.4741 50.9352 84.5082 52.8854 85.9289 55.2504ZM73.879 56.8962C73.9364 56.7858 73.9938 56.6711 74.0335 56.5476L74.4747 55.3254C74.5762 55.0342 74.8012 54.8047 75.0836 54.69L76.8308 54.0017C78.1192 55.5592 79.1605 57.4433 79.9282 59.6273C77.9163 58.3787 75.9131 57.4786 73.879 56.8962ZM81.0666 58.5243C80.4224 56.8476 79.6282 55.343 78.6796 54.0149C80.5371 54.3062 82.43 54.9856 84.4508 56.0887C83.6169 56.8079 82.4079 57.6815 81.0666 58.5243ZM86.3481 53.2604C85.1347 51.5926 83.6169 50.141 81.7946 48.9144C83.6831 49.0688 85.4789 49.5497 87.2085 50.3616C87.0629 51.0146 86.7761 52.153 86.3481 53.2604ZM83.8066 39.3795C86.5863 40.734 87.3894 43.7961 87.61 45.8081C86.2907 44.5286 84.7906 43.5976 83.1183 43.0196C83.0257 42.1283 82.5491 41.3473 81.7902 40.862C80.343 39.9442 78.7016 39.2868 77.0029 38.9206C78.9222 38.4617 81.4858 38.2455 83.8066 39.3795ZM45.7156 1.51783C61.4409 1.51783 71.3905 20.495 72.926 38.625C72.8333 38.6294 72.7407 38.6338 72.6524 38.6426C69.4888 38.925 66.8988 40.2663 65.5487 42.3136C64.9177 43.2623 64.5339 44.3344 64.3706 45.4684C63.2852 45.1595 61.3923 44.758 59.7024 45.1066C58.4626 45.3625 57.5139 46.0199 56.6006 46.6553C55.6917 47.2862 54.8313 47.8819 53.7503 48.0143C52.7796 48.1378 51.8221 47.9172 50.6176 47.6348C49.2718 47.326 47.7496 46.973 45.7156 46.973C43.6815 46.973 42.1549 47.326 40.8135 47.6348C39.6046 47.9172 38.6515 48.1378 37.6764 48.0143C36.5954 47.8819 35.7394 47.2862 34.8305 46.6553C33.9128 46.0199 32.9685 45.3625 31.7243 45.1066C30.0388 44.758 28.1415 45.1595 27.0561 45.4684C26.8973 44.3344 26.509 43.2623 25.8824 42.3136C24.5279 40.2663 21.9379 38.925 18.7743 38.6426C18.686 38.6338 18.5934 38.6294 18.5051 38.625C20.0406 20.495 29.9858 1.51783 45.7156 1.51783ZM7.62007 39.3795C9.94092 38.2455 12.5089 38.4617 14.4238 38.9206C12.7251 39.2868 11.0837 39.9442 9.63648 40.862C8.87757 41.3473 8.40104 42.1283 8.3128 43.0196C6.63614 43.5976 5.13597 44.5286 3.8167 45.8081C4.03732 43.7961 4.84035 40.734 7.62007 39.3795ZM34.9982 54.9812C35.2894 55.2592 35.2982 55.7225 35.0202 56.0137C34.879 56.1637 34.6893 56.2387 34.4996 56.2387C34.3187 56.2387 34.1334 56.1681 33.9966 56.0313L31.5434 53.6531C31.2566 53.3708 31.2477 52.9075 31.5257 52.6163C31.8037 52.3251 32.2626 52.3206 32.5494 52.5986L34.9982 54.9812ZM27.7312 56.7991L26.2486 60.2098C26.1295 60.4833 25.8648 60.6466 25.5868 60.6466C25.4897 60.6466 25.3927 60.6289 25.2956 60.5848C24.9294 60.426 24.7617 59.9936 24.925 59.6229L26.4031 56.2123C26.5663 55.8416 26.9943 55.674 27.3605 55.8328C27.7268 55.9961 27.8944 56.4285 27.7312 56.7991ZM42.3975 58.7934C42.6358 59.1155 42.5652 59.5744 42.2431 59.8127C42.1151 59.9097 41.9651 59.9583 41.8151 59.9583C41.5945 59.9583 41.3739 59.8524 41.2327 59.6582L39.6355 57.4742C39.3972 57.1477 39.4678 56.6932 39.7899 56.4505C40.112 56.2123 40.5664 56.2828 40.8003 56.6049L42.3975 58.7934ZM44.136 52.6295C44.4051 52.9295 44.383 53.3928 44.0918 53.6664C43.9506 53.7943 43.7742 53.8561 43.6021 53.8561C43.4035 53.8561 43.2094 53.7767 43.0682 53.6178L41.8901 52.3206C41.6166 52.0206 41.6386 51.5573 41.9342 51.2882C42.2299 51.0146 42.6887 51.0323 42.9579 51.3323L44.136 52.6295ZM49.9778 55.8019C50.2337 56.1152 50.1896 56.5741 49.8807 56.8344L47.5599 58.7714C47.4231 58.8861 47.2598 58.939 47.0966 58.939C46.8892 58.939 46.6818 58.8508 46.5406 58.6743C46.2847 58.3654 46.3289 57.9021 46.6377 57.6462L48.9586 55.7048C49.2674 55.4489 49.7219 55.4931 49.9778 55.8019ZM59.6142 57.0065C59.8789 57.3109 59.848 57.7698 59.548 58.0389C59.4112 58.1581 59.2391 58.2198 59.0715 58.2198C58.8685 58.2198 58.67 58.136 58.5244 57.9727L56.9668 56.1814C56.7021 55.8769 56.733 55.4136 57.033 55.1489C57.333 54.8842 57.7919 54.9106 58.0567 55.2151L59.6142 57.0065ZM63.0822 51.3896L62.3983 54.4076C62.3233 54.7474 62.0233 54.9768 61.6924 54.9768C61.6394 54.9768 61.5865 54.9724 61.5291 54.9592C61.1408 54.8665 60.8982 54.4738 60.9864 54.0811L61.6703 51.0631C61.7585 50.6704 62.1468 50.4234 62.5351 50.5116C62.9278 50.6043 63.1705 50.997 63.0822 51.3896ZM69.2991 60.6466C69.1623 60.8672 68.9285 60.9907 68.6858 60.9907C68.5534 60.9907 68.4211 60.9554 68.3019 60.8804L66.1002 59.5038C65.7605 59.2876 65.6546 58.8376 65.8664 58.4978C66.0737 58.1536 66.5194 58.0478 66.8635 58.2595L69.0652 59.6406C69.405 59.8524 69.5109 60.3024 69.2991 60.6466ZM54.3592 53.5252C54.6019 53.8429 54.5401 54.3017 54.2224 54.5488C54.0944 54.6503 53.9356 54.6988 53.7856 54.6988C53.565 54.6988 53.3532 54.6018 53.2076 54.4165L51.9766 52.7972C51.7339 52.4795 51.7957 52.0206 52.1089 51.7735C52.4266 51.5264 52.8811 51.5882 53.1282 51.9103L54.3592 53.5252Z" fill="#3A322B"/>
</g>
</svg>
